<svg width="407" height="495" viewBox="0 0 407 495" fill="none" xmlns="http://www.w3.org/2000/svg">
<path d="M181.062 157.614C114.361 288.264 74.2255 361.587 2 492.289C82.1336 446.423 125.597 425.28 195.984 409.864C186.941 369.542 197.137 339.639 200.247 332.412C203.358 325.186 203.8 323.175 207.353 316.78C210.906 310.385 217.301 302.569 217.301 302.569C222.438 297.356 225.701 294.822 232.223 291.2C238.726 288.937 242.807 288.189 251.408 288.357C260.009 288.526 267.04 294.042 267.04 294.042C274.706 299.986 278.531 303.909 284.805 311.806C291.079 319.703 298.305 340.939 298.305 340.939C300.196 349.394 301.028 354.068 301.858 362.256C302.981 371.603 303.461 376.88 303.279 386.415C303.044 395.876 301.987 400.859 300.437 409.864C388.392 431.776 425.971 455.197 493 493L451.077 416.259C420.189 389.286 400.73 377.203 365.809 357.282C392.554 364.861 407.506 370.46 434.023 384.284C355.787 240.312 312.933 158.564 247.145 2C224.993 56.8661 212.049 87.6628 187.457 142.692C210.71 165.673 224.112 178.14 250.698 197.405C223.17 186.734 207.49 178.337 181.062 157.614Z" fill="#1B1A1A" stroke="#1B1A1A"/>
</svg>
