<svg width="721" height="217" viewBox="0 0 721 217" fill="none" xmlns="http://www.w3.org/2000/svg">
<path d="M23.997 22H721L697.003 211H0L23.997 22Z" fill="url(#paint0_linear)"/>
<path d="M171.598 180H72L98.4127 46H123.725L101.164 160.633H176L171.598 180Z" fill="#CCEBF9"/>
<path d="M602.894 180H578L604.553 46H630L607.319 160.633L602.894 180Z" fill="#CCEBF9"/>
<path d="M471.894 180H447L473.553 46H499L476.319 160.633L471.894 180Z" fill="#CCEBF9"/>
<path d="M556 85H533.92H490.312L487 101H553.792L556 85Z" fill="#CCEBF9"/>
<path d="M564 46H541.92H498.312L495 62H561.792L564 46Z" fill="#CCEBF9"/>
<rect x="325" y="101" width="96" height="24" fill="#CCEBF9"/>
<path d="M227.423 54.5779C241.862 48.751 257.947 48.4774 272.576 53.8098C287.204 59.1422 299.34 69.7029 306.642 83.4547C313.944 97.2066 315.895 113.175 312.119 128.281C308.342 143.386 299.106 156.558 286.191 165.255C273.276 173.952 257.598 177.559 242.181 175.38C226.764 173.2 212.701 165.389 202.703 153.453C192.705 141.516 187.482 126.3 188.04 110.74C188.599 95.1798 194.9 80.3776 205.728 69.1887L238.989 101.376C236.116 104.345 234.444 108.272 234.296 112.4C234.148 116.529 235.534 120.566 238.186 123.733C240.839 126.899 244.57 128.972 248.66 129.55C252.75 130.128 256.91 129.171 260.336 126.864C263.763 124.556 266.213 121.062 267.215 117.054C268.217 113.047 267.7 108.81 265.762 105.161C263.825 101.513 260.605 98.7109 256.724 97.2962C252.843 95.8814 248.575 95.954 244.745 97.5L227.423 54.5779Z" fill="#CCEBF9"/>
<defs>
<linearGradient id="paint0_linear" x1="19.5" y1="22.0001" x2="691.5" y2="211" gradientUnits="userSpaceOnUse">
<stop stop-color="#015F4F"/>
<stop offset="1" stop-color="#022B23"/>
</linearGradient>
</defs>
</svg>
