<svg width="27" height="22" viewBox="0 0 27 22" fill="none" xmlns="http://www.w3.org/2000/svg">
<path d="M26.0357 0.516388H0.964286C0.430915 0.516388 0 0.947975 0 1.48218V20.798C0 21.3322 0.430915 21.7638 0.964286 21.7638H26.0357C26.5691 21.7638 27 21.3322 27 20.798V1.48218C27 0.947975 26.5691 0.516388 26.0357 0.516388ZM24.8304 3.86044V19.5907H2.16964V3.86044L1.33795 3.21155L2.52221 1.68741L3.81194 2.69243H23.1911L24.4808 1.68741L25.6651 3.21155L24.8304 3.86044ZM23.1911 2.68942L13.5 10.2347L3.80893 2.68942L2.5192 1.68439L1.33493 3.20853L2.16663 3.85742L12.4604 11.8735C12.7564 12.1038 13.1206 12.2289 13.4955 12.2289C13.8704 12.2289 14.2345 12.1038 14.5306 11.8735L24.8304 3.86044L25.6621 3.21155L24.4778 1.68741L23.1911 2.68942Z" fill="#1F3056"/>
</svg>
