<svg width="893" height="238" viewBox="0 0 893 238" fill="none" xmlns="http://www.w3.org/2000/svg">
<rect x="283" y="53" width="41" height="41" rx="12" fill="#5350E9" fill-opacity="0.53"/>
<rect x="796" y="187" width="97" height="51" rx="12" fill="#D797F5" fill-opacity="0.76"/>
<rect x="77" y="74" width="737" height="113" rx="12" fill="#FFE600" fill-opacity="0.76"/>
<rect y="47" width="169" height="54" rx="12" fill="#F019C3" fill-opacity="0.75"/>
<rect x="545" width="68" height="106" rx="12" fill="#AEF019" fill-opacity="0.62"/>
<rect x="85" y="74" width="729" height="106" rx="12" fill="#1958F0" fill-opacity="0.89"/>
<rect x="782" y="148" width="63" height="63" rx="12" fill="#19F046" fill-opacity="0.75"/>
<path d="M142.814 132.237V134H134.639V132.237H142.814ZM135.065 117.648V134H132.898V117.648H135.065ZM151.922 131.192V121.849H154.011V134H152.023L151.922 131.192ZM152.315 128.632L153.18 128.609C153.18 129.418 153.094 130.167 152.922 130.855C152.757 131.537 152.488 132.128 152.113 132.63C151.739 133.132 151.249 133.525 150.642 133.809C150.036 134.086 149.298 134.225 148.43 134.225C147.838 134.225 147.295 134.139 146.801 133.966C146.315 133.794 145.895 133.528 145.543 133.169C145.192 132.81 144.918 132.342 144.724 131.765C144.536 131.189 144.443 130.496 144.443 129.688V121.849H146.521V129.71C146.521 130.257 146.58 130.709 146.7 131.069C146.827 131.421 146.996 131.701 147.206 131.911C147.423 132.113 147.662 132.256 147.924 132.338C148.194 132.42 148.471 132.461 148.755 132.461C149.639 132.461 150.339 132.293 150.855 131.956C151.372 131.612 151.743 131.151 151.967 130.575C152.199 129.991 152.315 129.343 152.315 128.632ZM159.436 121.849V134H157.347V121.849H159.436ZM157.189 118.625C157.189 118.289 157.291 118.004 157.493 117.772C157.702 117.54 158.009 117.424 158.414 117.424C158.81 117.424 159.114 117.54 159.323 117.772C159.54 118.004 159.649 118.289 159.649 118.625C159.649 118.947 159.54 119.224 159.323 119.457C159.114 119.681 158.81 119.793 158.414 119.793C158.009 119.793 157.702 119.681 157.493 119.457C157.291 119.224 157.189 118.947 157.189 118.625ZM169.846 130.777C169.846 130.477 169.779 130.2 169.644 129.946C169.517 129.684 169.251 129.448 168.847 129.238C168.45 129.021 167.851 128.834 167.05 128.677C166.376 128.535 165.766 128.366 165.219 128.171C164.68 127.977 164.22 127.741 163.838 127.464C163.464 127.187 163.175 126.861 162.973 126.487C162.771 126.112 162.67 125.674 162.67 125.173C162.67 124.694 162.775 124.241 162.984 123.814C163.201 123.387 163.505 123.009 163.894 122.68C164.291 122.35 164.766 122.092 165.32 121.905C165.874 121.718 166.492 121.624 167.173 121.624C168.147 121.624 168.978 121.796 169.667 122.141C170.355 122.485 170.883 122.945 171.25 123.522C171.617 124.091 171.8 124.724 171.8 125.42H169.723C169.723 125.083 169.622 124.757 169.419 124.443C169.225 124.121 168.937 123.855 168.555 123.646C168.18 123.436 167.72 123.331 167.173 123.331C166.597 123.331 166.129 123.421 165.77 123.601C165.418 123.773 165.159 123.994 164.995 124.263C164.837 124.533 164.759 124.817 164.759 125.117C164.759 125.341 164.796 125.543 164.871 125.723C164.953 125.895 165.096 126.056 165.298 126.206C165.5 126.348 165.785 126.483 166.151 126.61C166.518 126.738 166.986 126.865 167.555 126.992C168.551 127.217 169.371 127.486 170.015 127.801C170.659 128.115 171.138 128.501 171.452 128.958C171.767 129.414 171.924 129.968 171.924 130.62C171.924 131.151 171.812 131.638 171.587 132.08C171.37 132.521 171.052 132.903 170.632 133.225C170.221 133.54 169.726 133.787 169.15 133.966C168.581 134.139 167.941 134.225 167.229 134.225C166.159 134.225 165.253 134.034 164.512 133.652C163.771 133.27 163.209 132.776 162.827 132.169C162.445 131.563 162.254 130.923 162.254 130.249H164.343C164.373 130.818 164.538 131.271 164.837 131.608C165.137 131.937 165.504 132.173 165.938 132.315C166.372 132.45 166.803 132.518 167.229 132.518C167.799 132.518 168.274 132.443 168.656 132.293C169.045 132.143 169.341 131.937 169.543 131.675C169.745 131.413 169.846 131.114 169.846 130.777ZM182.84 117.648V134H180.672V117.648H182.84ZM189.69 125.004V126.779H182.368V125.004H189.69ZM190.802 117.648V119.423H182.368V117.648H190.802ZM197.866 134.225C197.02 134.225 196.253 134.082 195.564 133.798C194.883 133.506 194.295 133.098 193.801 132.574C193.314 132.05 192.94 131.428 192.678 130.709C192.416 129.991 192.285 129.205 192.285 128.351V127.879C192.285 126.891 192.431 126.011 192.723 125.24C193.015 124.462 193.411 123.803 193.913 123.264C194.415 122.725 194.984 122.317 195.62 122.04C196.257 121.763 196.915 121.624 197.597 121.624C198.465 121.624 199.214 121.774 199.843 122.073C200.479 122.373 201 122.792 201.404 123.331C201.808 123.863 202.108 124.492 202.302 125.218C202.497 125.937 202.594 126.723 202.594 127.576V128.508H193.52V126.812H200.517V126.655C200.487 126.116 200.374 125.592 200.18 125.083C199.993 124.574 199.693 124.155 199.281 123.825C198.869 123.496 198.308 123.331 197.597 123.331C197.125 123.331 196.691 123.432 196.294 123.634C195.897 123.829 195.556 124.121 195.272 124.51C194.987 124.9 194.767 125.375 194.609 125.937C194.452 126.498 194.374 127.146 194.374 127.879V128.351C194.374 128.928 194.452 129.47 194.609 129.979C194.774 130.481 195.01 130.923 195.317 131.305C195.631 131.687 196.009 131.986 196.451 132.203C196.9 132.42 197.41 132.529 197.979 132.529C198.712 132.529 199.334 132.379 199.843 132.08C200.352 131.78 200.797 131.38 201.179 130.878L202.437 131.877C202.175 132.274 201.842 132.652 201.438 133.012C201.033 133.371 200.535 133.663 199.944 133.888C199.36 134.112 198.667 134.225 197.866 134.225ZM207.277 116.75V134H205.188V116.75H207.277ZM212.87 121.849V134H210.781V121.849H212.87ZM210.624 118.625C210.624 118.289 210.725 118.004 210.927 117.772C211.137 117.54 211.444 117.424 211.848 117.424C212.245 117.424 212.548 117.54 212.758 117.772C212.975 118.004 213.083 118.289 213.083 118.625C213.083 118.947 212.975 119.224 212.758 119.457C212.548 119.681 212.245 119.793 211.848 119.793C211.444 119.793 211.137 119.681 210.927 119.457C210.725 119.224 210.624 118.947 210.624 118.625ZM218.283 124.185V138.672H216.194V121.849H218.104L218.283 124.185ZM226.47 127.823V128.059C226.47 128.943 226.365 129.762 226.156 130.519C225.946 131.267 225.639 131.919 225.235 132.473C224.838 133.027 224.348 133.457 223.764 133.764C223.18 134.071 222.51 134.225 221.753 134.225C220.982 134.225 220.301 134.097 219.709 133.843C219.118 133.588 218.616 133.218 218.205 132.731C217.793 132.244 217.463 131.66 217.216 130.979C216.977 130.298 216.812 129.53 216.722 128.677V127.419C216.812 126.521 216.98 125.716 217.228 125.004C217.475 124.293 217.8 123.687 218.205 123.185C218.616 122.676 219.114 122.29 219.698 122.028C220.282 121.759 220.956 121.624 221.72 121.624C222.483 121.624 223.161 121.774 223.752 122.073C224.344 122.365 224.842 122.785 225.246 123.331C225.65 123.878 225.954 124.533 226.156 125.296C226.365 126.053 226.47 126.895 226.47 127.823ZM224.381 128.059V127.823C224.381 127.217 224.318 126.648 224.19 126.116C224.063 125.577 223.865 125.105 223.595 124.701C223.333 124.289 222.996 123.967 222.584 123.735C222.173 123.496 221.682 123.376 221.113 123.376C220.589 123.376 220.132 123.466 219.743 123.646C219.361 123.825 219.036 124.069 218.766 124.375C218.497 124.675 218.276 125.019 218.104 125.409C217.939 125.791 217.815 126.187 217.733 126.599V129.508C217.883 130.032 218.092 130.526 218.362 130.99C218.631 131.447 218.991 131.818 219.44 132.102C219.889 132.379 220.454 132.518 221.136 132.518C221.697 132.518 222.18 132.402 222.584 132.169C222.996 131.93 223.333 131.604 223.595 131.192C223.865 130.781 224.063 130.309 224.19 129.777C224.318 129.238 224.381 128.666 224.381 128.059ZM234.163 134.225C233.317 134.225 232.55 134.082 231.861 133.798C231.18 133.506 230.592 133.098 230.098 132.574C229.611 132.05 229.237 131.428 228.975 130.709C228.713 129.991 228.582 129.205 228.582 128.351V127.879C228.582 126.891 228.728 126.011 229.02 125.24C229.312 124.462 229.708 123.803 230.21 123.264C230.712 122.725 231.281 122.317 231.917 122.04C232.553 121.763 233.212 121.624 233.894 121.624C234.762 121.624 235.511 121.774 236.14 122.073C236.776 122.373 237.296 122.792 237.701 123.331C238.105 123.863 238.404 124.492 238.599 125.218C238.794 125.937 238.891 126.723 238.891 127.576V128.508H229.817V126.812H236.813V126.655C236.784 126.116 236.671 125.592 236.477 125.083C236.289 124.574 235.99 124.155 235.578 123.825C235.166 123.496 234.605 123.331 233.894 123.331C233.422 123.331 232.988 123.432 232.591 123.634C232.194 123.829 231.853 124.121 231.569 124.51C231.284 124.9 231.063 125.375 230.906 125.937C230.749 126.498 230.67 127.146 230.67 127.879V128.351C230.67 128.928 230.749 129.47 230.906 129.979C231.071 130.481 231.307 130.923 231.614 131.305C231.928 131.687 232.306 131.986 232.748 132.203C233.197 132.42 233.706 132.529 234.275 132.529C235.009 132.529 235.631 132.379 236.14 132.08C236.649 131.78 237.094 131.38 237.476 130.878L238.734 131.877C238.472 132.274 238.139 132.652 237.734 133.012C237.33 133.371 236.832 133.663 236.241 133.888C235.657 134.112 234.964 134.225 234.163 134.225ZM259.42 125.858V131.844C259.218 132.143 258.896 132.48 258.455 132.854C258.013 133.221 257.403 133.543 256.624 133.82C255.853 134.09 254.857 134.225 253.637 134.225C252.641 134.225 251.724 134.052 250.885 133.708C250.054 133.356 249.332 132.847 248.718 132.181C248.111 131.507 247.64 130.691 247.303 129.732C246.973 128.767 246.809 127.674 246.809 126.453V125.184C246.809 123.964 246.951 122.874 247.235 121.916C247.527 120.958 247.954 120.145 248.516 119.479C249.077 118.805 249.766 118.296 250.582 117.952C251.398 117.6 252.334 117.424 253.39 117.424C254.64 117.424 255.684 117.641 256.523 118.075C257.369 118.502 258.028 119.093 258.5 119.85C258.979 120.606 259.286 121.467 259.42 122.433H257.253C257.156 121.841 256.961 121.302 256.669 120.815C256.384 120.329 255.976 119.939 255.445 119.647C254.913 119.348 254.228 119.198 253.39 119.198C252.633 119.198 251.978 119.337 251.424 119.614C250.87 119.891 250.414 120.288 250.054 120.804C249.695 121.321 249.425 121.946 249.246 122.68C249.073 123.413 248.987 124.241 248.987 125.162V126.453C248.987 127.396 249.096 128.239 249.313 128.98C249.538 129.721 249.856 130.354 250.268 130.878C250.679 131.395 251.17 131.788 251.739 132.057C252.315 132.327 252.952 132.461 253.648 132.461C254.419 132.461 255.044 132.398 255.523 132.271C256.003 132.136 256.377 131.979 256.646 131.799C256.916 131.612 257.122 131.436 257.264 131.271V127.61H253.479V125.858H259.42ZM269.865 131.922V125.667C269.865 125.188 269.767 124.772 269.573 124.42C269.386 124.061 269.101 123.784 268.719 123.589C268.337 123.395 267.866 123.297 267.304 123.297C266.78 123.297 266.32 123.387 265.923 123.567C265.534 123.747 265.227 123.982 265.002 124.274C264.785 124.566 264.676 124.881 264.676 125.218H262.599C262.599 124.784 262.711 124.353 262.936 123.926C263.16 123.5 263.482 123.114 263.901 122.77C264.328 122.418 264.837 122.141 265.429 121.938C266.028 121.729 266.694 121.624 267.428 121.624C268.311 121.624 269.09 121.774 269.764 122.073C270.445 122.373 270.977 122.826 271.358 123.432C271.748 124.031 271.942 124.784 271.942 125.689V131.35C271.942 131.754 271.976 132.184 272.043 132.641C272.118 133.098 272.227 133.491 272.369 133.82V134H270.202C270.097 133.76 270.014 133.442 269.955 133.045C269.895 132.641 269.865 132.267 269.865 131.922ZM270.224 126.633L270.247 128.093H268.146C267.555 128.093 267.027 128.141 266.563 128.239C266.099 128.329 265.709 128.467 265.395 128.654C265.081 128.841 264.841 129.077 264.676 129.362C264.512 129.639 264.429 129.965 264.429 130.339C264.429 130.721 264.515 131.069 264.688 131.383C264.86 131.698 265.118 131.949 265.462 132.136C265.814 132.315 266.245 132.405 266.754 132.405C267.39 132.405 267.952 132.271 268.438 132.001C268.925 131.731 269.311 131.402 269.595 131.013C269.887 130.623 270.044 130.245 270.067 129.878L270.954 130.878C270.902 131.192 270.759 131.541 270.527 131.922C270.295 132.304 269.985 132.671 269.595 133.023C269.213 133.367 268.757 133.656 268.225 133.888C267.701 134.112 267.11 134.225 266.451 134.225C265.627 134.225 264.905 134.064 264.283 133.742C263.669 133.42 263.19 132.989 262.846 132.45C262.509 131.904 262.34 131.293 262.34 130.62C262.34 129.968 262.468 129.396 262.722 128.901C262.977 128.4 263.344 127.984 263.823 127.655C264.302 127.318 264.878 127.063 265.552 126.891C266.226 126.719 266.979 126.633 267.81 126.633H270.224ZM277.468 116.75V134H275.379V116.75H277.468ZM283.061 116.75V134H280.972V116.75H283.061ZM291.438 134.225C290.592 134.225 289.825 134.082 289.136 133.798C288.455 133.506 287.867 133.098 287.373 132.574C286.886 132.05 286.512 131.428 286.25 130.709C285.988 129.991 285.857 129.205 285.857 128.351V127.879C285.857 126.891 286.003 126.011 286.295 125.24C286.587 124.462 286.984 123.803 287.485 123.264C287.987 122.725 288.556 122.317 289.192 122.04C289.829 121.763 290.488 121.624 291.169 121.624C292.037 121.624 292.786 121.774 293.415 122.073C294.051 122.373 294.572 122.792 294.976 123.331C295.38 123.863 295.68 124.492 295.875 125.218C296.069 125.937 296.167 126.723 296.167 127.576V128.508H287.092V126.812H294.089V126.655C294.059 126.116 293.947 125.592 293.752 125.083C293.565 124.574 293.265 124.155 292.854 123.825C292.442 123.496 291.88 123.331 291.169 123.331C290.697 123.331 290.263 123.432 289.866 123.634C289.469 123.829 289.129 124.121 288.844 124.51C288.56 124.9 288.339 125.375 288.182 125.937C288.024 126.498 287.946 127.146 287.946 127.879V128.351C287.946 128.928 288.024 129.47 288.182 129.979C288.346 130.481 288.582 130.923 288.889 131.305C289.204 131.687 289.582 131.986 290.023 132.203C290.473 132.42 290.982 132.529 291.551 132.529C292.285 132.529 292.906 132.379 293.415 132.08C293.924 131.78 294.37 131.38 294.751 130.878L296.009 131.877C295.747 132.274 295.414 132.652 295.01 133.012C294.605 133.371 294.108 133.663 293.516 133.888C292.932 134.112 292.24 134.225 291.438 134.225ZM306.465 121.849H308.352V133.742C308.352 134.812 308.134 135.726 307.7 136.482C307.266 137.238 306.66 137.811 305.881 138.2C305.11 138.597 304.219 138.795 303.208 138.795C302.789 138.795 302.295 138.728 301.726 138.593C301.164 138.466 300.61 138.245 300.063 137.931C299.524 137.624 299.071 137.208 298.705 136.684L299.794 135.449C300.303 136.063 300.835 136.489 301.389 136.729C301.95 136.969 302.504 137.088 303.051 137.088C303.71 137.088 304.279 136.965 304.758 136.718C305.237 136.471 305.608 136.104 305.87 135.617C306.139 135.138 306.274 134.547 306.274 133.843V124.521L306.465 121.849ZM298.098 128.059V127.823C298.098 126.895 298.207 126.053 298.424 125.296C298.648 124.533 298.967 123.878 299.378 123.331C299.798 122.785 300.303 122.365 300.895 122.073C301.486 121.774 302.152 121.624 302.894 121.624C303.657 121.624 304.324 121.759 304.893 122.028C305.469 122.29 305.956 122.676 306.353 123.185C306.757 123.687 307.075 124.293 307.307 125.004C307.539 125.716 307.7 126.521 307.79 127.419V128.452C307.708 129.343 307.547 130.144 307.307 130.855C307.075 131.567 306.757 132.173 306.353 132.675C305.956 133.176 305.469 133.562 304.893 133.832C304.316 134.094 303.642 134.225 302.871 134.225C302.145 134.225 301.486 134.071 300.895 133.764C300.311 133.457 299.809 133.027 299.39 132.473C298.97 131.919 298.648 131.267 298.424 130.519C298.207 129.762 298.098 128.943 298.098 128.059ZM300.176 127.823V128.059C300.176 128.666 300.236 129.235 300.355 129.766C300.483 130.298 300.674 130.766 300.928 131.17C301.19 131.574 301.523 131.892 301.928 132.125C302.332 132.349 302.815 132.461 303.376 132.461C304.065 132.461 304.634 132.315 305.083 132.023C305.533 131.731 305.888 131.346 306.15 130.867C306.42 130.388 306.63 129.867 306.779 129.306V126.599C306.697 126.187 306.57 125.791 306.397 125.409C306.233 125.019 306.016 124.675 305.746 124.375C305.484 124.069 305.158 123.825 304.769 123.646C304.38 123.466 303.923 123.376 303.399 123.376C302.83 123.376 302.34 123.496 301.928 123.735C301.523 123.967 301.19 124.289 300.928 124.701C300.674 125.105 300.483 125.577 300.355 126.116C300.236 126.648 300.176 127.217 300.176 127.823ZM318.942 131.192V121.849H321.031V134H319.043L318.942 131.192ZM319.335 128.632L320.2 128.609C320.2 129.418 320.114 130.167 319.941 130.855C319.777 131.537 319.507 132.128 319.133 132.63C318.758 133.132 318.268 133.525 317.662 133.809C317.055 134.086 316.318 134.225 315.449 134.225C314.858 134.225 314.315 134.139 313.821 133.966C313.334 133.794 312.915 133.528 312.563 133.169C312.211 132.81 311.938 132.342 311.743 131.765C311.556 131.189 311.462 130.496 311.462 129.688V121.849H313.54V129.71C313.54 130.257 313.6 130.709 313.72 131.069C313.847 131.421 314.015 131.701 314.225 131.911C314.442 132.113 314.682 132.256 314.944 132.338C315.213 132.42 315.49 132.461 315.775 132.461C316.658 132.461 317.358 132.293 317.875 131.956C318.392 131.612 318.762 131.151 318.987 130.575C319.219 129.991 319.335 129.343 319.335 128.632ZM326.455 121.849V134H324.366V121.849H326.455ZM324.209 118.625C324.209 118.289 324.31 118.004 324.512 117.772C324.722 117.54 325.029 117.424 325.433 117.424C325.83 117.424 326.133 117.54 326.343 117.772C326.56 118.004 326.668 118.289 326.668 118.625C326.668 118.947 326.56 119.224 326.343 119.457C326.133 119.681 325.83 119.793 325.433 119.793C325.029 119.793 324.722 119.681 324.512 119.457C324.31 119.224 324.209 118.947 324.209 118.625ZM332.048 116.75V134H329.959V116.75H332.048ZM337.641 116.75V134H335.552V116.75H337.641ZM340.426 128.059V127.801C340.426 126.925 340.553 126.112 340.808 125.364C341.062 124.608 341.429 123.952 341.908 123.398C342.387 122.837 342.968 122.403 343.649 122.096C344.33 121.781 345.094 121.624 345.94 121.624C346.793 121.624 347.561 121.781 348.242 122.096C348.931 122.403 349.515 122.837 349.994 123.398C350.481 123.952 350.851 124.608 351.106 125.364C351.361 126.112 351.488 126.925 351.488 127.801V128.059C351.488 128.935 351.361 129.747 351.106 130.496C350.851 131.245 350.481 131.9 349.994 132.461C349.515 133.015 348.935 133.45 348.253 133.764C347.58 134.071 346.816 134.225 345.962 134.225C345.109 134.225 344.341 134.071 343.66 133.764C342.979 133.45 342.395 133.015 341.908 132.461C341.429 131.9 341.062 131.245 340.808 130.496C340.553 129.747 340.426 128.935 340.426 128.059ZM342.503 127.801V128.059C342.503 128.666 342.575 129.238 342.717 129.777C342.859 130.309 343.072 130.781 343.357 131.192C343.649 131.604 344.012 131.93 344.446 132.169C344.881 132.402 345.386 132.518 345.962 132.518C346.531 132.518 347.029 132.402 347.456 132.169C347.89 131.93 348.25 131.604 348.534 131.192C348.819 130.781 349.032 130.309 349.174 129.777C349.324 129.238 349.399 128.666 349.399 128.059V127.801C349.399 127.202 349.324 126.637 349.174 126.105C349.032 125.566 348.815 125.09 348.523 124.679C348.238 124.259 347.879 123.93 347.445 123.69C347.018 123.451 346.516 123.331 345.94 123.331C345.371 123.331 344.869 123.451 344.435 123.69C344.008 123.93 343.649 124.259 343.357 124.679C343.072 125.09 342.859 125.566 342.717 126.105C342.575 126.637 342.503 127.202 342.503 127.801ZM361.168 130.777C361.168 130.477 361.101 130.2 360.966 129.946C360.839 129.684 360.573 129.448 360.169 129.238C359.772 129.021 359.173 128.834 358.372 128.677C357.698 128.535 357.088 128.366 356.542 128.171C356.002 127.977 355.542 127.741 355.16 127.464C354.786 127.187 354.498 126.861 354.295 126.487C354.093 126.112 353.992 125.674 353.992 125.173C353.992 124.694 354.097 124.241 354.307 123.814C354.524 123.387 354.827 123.009 355.216 122.68C355.613 122.35 356.089 122.092 356.643 121.905C357.197 121.718 357.814 121.624 358.496 121.624C359.469 121.624 360.3 121.796 360.989 122.141C361.678 122.485 362.205 122.945 362.572 123.522C362.939 124.091 363.123 124.724 363.123 125.42H361.045C361.045 125.083 360.944 124.757 360.742 124.443C360.547 124.121 360.259 123.855 359.877 123.646C359.503 123.436 359.042 123.331 358.496 123.331C357.919 123.331 357.451 123.421 357.092 123.601C356.74 123.773 356.482 123.994 356.317 124.263C356.16 124.533 356.081 124.817 356.081 125.117C356.081 125.341 356.118 125.543 356.193 125.723C356.276 125.895 356.418 126.056 356.62 126.206C356.822 126.348 357.107 126.483 357.474 126.61C357.84 126.738 358.308 126.865 358.877 126.992C359.873 127.217 360.693 127.486 361.337 127.801C361.981 128.115 362.46 128.501 362.774 128.958C363.089 129.414 363.246 129.968 363.246 130.62C363.246 131.151 363.134 131.638 362.909 132.08C362.692 132.521 362.374 132.903 361.955 133.225C361.543 133.54 361.049 133.787 360.472 133.966C359.903 134.139 359.263 134.225 358.552 134.225C357.481 134.225 356.575 134.034 355.834 133.652C355.093 133.27 354.531 132.776 354.149 132.169C353.768 131.563 353.577 130.923 353.577 130.249H355.666C355.695 130.818 355.86 131.271 356.16 131.608C356.459 131.937 356.826 132.173 357.26 132.315C357.694 132.45 358.125 132.518 358.552 132.518C359.121 132.518 359.596 132.443 359.978 132.293C360.367 132.143 360.663 131.937 360.865 131.675C361.067 131.413 361.168 131.114 361.168 130.777ZM381.866 128.8H384.022C383.91 129.833 383.614 130.758 383.135 131.574C382.656 132.39 381.979 133.038 381.103 133.517C380.227 133.989 379.133 134.225 377.823 134.225C376.865 134.225 375.993 134.045 375.207 133.686C374.428 133.326 373.758 132.817 373.196 132.158C372.635 131.492 372.201 130.694 371.894 129.766C371.594 128.83 371.444 127.79 371.444 126.644V125.016C371.444 123.87 371.594 122.833 371.894 121.905C372.201 120.969 372.639 120.168 373.208 119.501C373.784 118.835 374.477 118.322 375.285 117.963C376.094 117.604 377.003 117.424 378.014 117.424C379.25 117.424 380.294 117.656 381.147 118.12C382.001 118.584 382.664 119.228 383.135 120.052C383.614 120.868 383.91 121.815 384.022 122.893H381.866C381.761 122.129 381.567 121.474 381.282 120.928C380.998 120.374 380.593 119.947 380.069 119.647C379.545 119.348 378.86 119.198 378.014 119.198C377.288 119.198 376.648 119.337 376.094 119.614C375.547 119.891 375.087 120.284 374.712 120.793C374.346 121.302 374.069 121.912 373.881 122.624C373.694 123.335 373.601 124.125 373.601 124.993V126.644C373.601 127.445 373.683 128.198 373.848 128.901C374.02 129.605 374.278 130.223 374.623 130.754C374.967 131.286 375.405 131.705 375.937 132.012C376.468 132.312 377.097 132.461 377.823 132.461C378.744 132.461 379.478 132.315 380.024 132.023C380.571 131.731 380.983 131.312 381.26 130.766C381.544 130.219 381.746 129.564 381.866 128.8ZM393.827 131.922V125.667C393.827 125.188 393.729 124.772 393.535 124.42C393.347 124.061 393.063 123.784 392.681 123.589C392.299 123.395 391.828 123.297 391.266 123.297C390.742 123.297 390.282 123.387 389.885 123.567C389.495 123.747 389.188 123.982 388.964 124.274C388.747 124.566 388.638 124.881 388.638 125.218H386.561C386.561 124.784 386.673 124.353 386.897 123.926C387.122 123.5 387.444 123.114 387.863 122.77C388.29 122.418 388.799 122.141 389.391 121.938C389.99 121.729 390.656 121.624 391.39 121.624C392.273 121.624 393.052 121.774 393.726 122.073C394.407 122.373 394.938 122.826 395.32 123.432C395.71 124.031 395.904 124.784 395.904 125.689V131.35C395.904 131.754 395.938 132.184 396.005 132.641C396.08 133.098 396.189 133.491 396.331 133.82V134H394.164C394.059 133.76 393.976 133.442 393.917 133.045C393.857 132.641 393.827 132.267 393.827 131.922ZM394.186 126.633L394.208 128.093H392.108C391.517 128.093 390.989 128.141 390.525 128.239C390.061 128.329 389.671 128.467 389.357 128.654C389.042 128.841 388.803 129.077 388.638 129.362C388.473 129.639 388.391 129.965 388.391 130.339C388.391 130.721 388.477 131.069 388.649 131.383C388.822 131.698 389.08 131.949 389.424 132.136C389.776 132.315 390.207 132.405 390.716 132.405C391.352 132.405 391.914 132.271 392.4 132.001C392.887 131.731 393.273 131.402 393.557 131.013C393.849 130.623 394.006 130.245 394.029 129.878L394.916 130.878C394.864 131.192 394.721 131.541 394.489 131.922C394.257 132.304 393.946 132.671 393.557 133.023C393.175 133.367 392.719 133.656 392.187 133.888C391.663 134.112 391.071 134.225 390.413 134.225C389.589 134.225 388.867 134.064 388.245 133.742C387.631 133.42 387.152 132.989 386.808 132.45C386.471 131.904 386.302 131.293 386.302 130.62C386.302 129.968 386.43 129.396 386.684 128.901C386.939 128.4 387.306 127.984 387.785 127.655C388.264 127.318 388.84 127.063 389.514 126.891C390.188 126.719 390.94 126.633 391.771 126.633H394.186ZM401.239 124.263V134H399.15V121.849H401.126L401.239 124.263ZM400.812 127.464L399.846 127.43C399.854 126.599 399.962 125.832 400.172 125.128C400.382 124.417 400.692 123.799 401.104 123.275C401.516 122.751 402.029 122.347 402.643 122.062C403.257 121.77 403.968 121.624 404.776 121.624C405.345 121.624 405.869 121.706 406.349 121.871C406.828 122.028 407.243 122.279 407.595 122.624C407.947 122.968 408.22 123.41 408.415 123.949C408.61 124.488 408.707 125.139 408.707 125.903V134H406.629V126.004C406.629 125.368 406.521 124.858 406.304 124.477C406.094 124.095 405.795 123.818 405.405 123.646C405.016 123.466 404.559 123.376 404.035 123.376C403.421 123.376 402.908 123.485 402.497 123.702C402.085 123.919 401.755 124.218 401.508 124.6C401.261 124.982 401.082 125.42 400.969 125.914C400.864 126.401 400.812 126.917 400.812 127.464ZM408.685 126.318L407.292 126.745C407.299 126.079 407.408 125.439 407.618 124.825C407.835 124.211 408.146 123.664 408.55 123.185C408.962 122.706 409.467 122.328 410.066 122.051C410.665 121.766 411.35 121.624 412.121 121.624C412.772 121.624 413.349 121.71 413.851 121.882C414.36 122.055 414.786 122.32 415.131 122.68C415.483 123.032 415.749 123.485 415.928 124.039C416.108 124.593 416.198 125.251 416.198 126.015V134H414.109V125.993C414.109 125.311 414 124.784 413.783 124.409C413.574 124.027 413.274 123.762 412.885 123.612C412.503 123.455 412.046 123.376 411.515 123.376C411.058 123.376 410.654 123.455 410.302 123.612C409.95 123.769 409.654 123.986 409.415 124.263C409.175 124.533 408.992 124.843 408.864 125.195C408.744 125.547 408.685 125.922 408.685 126.318ZM421.42 124.185V138.672H419.331V121.849H421.24L421.42 124.185ZM429.607 127.823V128.059C429.607 128.943 429.502 129.762 429.292 130.519C429.083 131.267 428.776 131.919 428.372 132.473C427.975 133.027 427.484 133.457 426.9 133.764C426.316 134.071 425.646 134.225 424.89 134.225C424.119 134.225 423.438 134.097 422.846 133.843C422.255 133.588 421.753 133.218 421.341 132.731C420.93 132.244 420.6 131.66 420.353 130.979C420.113 130.298 419.949 129.53 419.859 128.677V127.419C419.949 126.521 420.117 125.716 420.364 125.004C420.611 124.293 420.937 123.687 421.341 123.185C421.753 122.676 422.251 122.29 422.835 122.028C423.419 121.759 424.093 121.624 424.856 121.624C425.62 121.624 426.298 121.774 426.889 122.073C427.481 122.365 427.979 122.785 428.383 123.331C428.787 123.878 429.09 124.533 429.292 125.296C429.502 126.053 429.607 126.895 429.607 127.823ZM427.518 128.059V127.823C427.518 127.217 427.454 126.648 427.327 126.116C427.2 125.577 427.001 125.105 426.732 124.701C426.47 124.289 426.133 123.967 425.721 123.735C425.309 123.496 424.819 123.376 424.25 123.376C423.726 123.376 423.269 123.466 422.88 123.646C422.498 123.825 422.172 124.069 421.903 124.375C421.633 124.675 421.412 125.019 421.24 125.409C421.076 125.791 420.952 126.187 420.87 126.599V129.508C421.019 130.032 421.229 130.526 421.499 130.99C421.768 131.447 422.127 131.818 422.577 132.102C423.026 132.379 423.591 132.518 424.272 132.518C424.834 132.518 425.317 132.402 425.721 132.169C426.133 131.93 426.47 131.604 426.732 131.192C427.001 130.781 427.2 130.309 427.327 129.777C427.454 129.238 427.518 128.666 427.518 128.059ZM431.707 128.059V127.801C431.707 126.925 431.834 126.112 432.089 125.364C432.343 124.608 432.71 123.952 433.189 123.398C433.669 122.837 434.249 122.403 434.93 122.096C435.611 121.781 436.375 121.624 437.221 121.624C438.075 121.624 438.842 121.781 439.523 122.096C440.212 122.403 440.796 122.837 441.275 123.398C441.762 123.952 442.133 124.608 442.387 125.364C442.642 126.112 442.769 126.925 442.769 127.801V128.059C442.769 128.935 442.642 129.747 442.387 130.496C442.133 131.245 441.762 131.9 441.275 132.461C440.796 133.015 440.216 133.45 439.535 133.764C438.861 134.071 438.097 134.225 437.244 134.225C436.39 134.225 435.623 134.071 434.941 133.764C434.26 133.45 433.676 133.015 433.189 132.461C432.71 131.9 432.343 131.245 432.089 130.496C431.834 129.747 431.707 128.935 431.707 128.059ZM433.785 127.801V128.059C433.785 128.666 433.856 129.238 433.998 129.777C434.14 130.309 434.354 130.781 434.638 131.192C434.93 131.604 435.293 131.93 435.728 132.169C436.162 132.402 436.667 132.518 437.244 132.518C437.813 132.518 438.311 132.402 438.737 132.169C439.172 131.93 439.531 131.604 439.815 131.192C440.1 130.781 440.313 130.309 440.456 129.777C440.605 129.238 440.68 128.666 440.68 128.059V127.801C440.68 127.202 440.605 126.637 440.456 126.105C440.313 125.566 440.096 125.09 439.804 124.679C439.52 124.259 439.16 123.93 438.726 123.69C438.299 123.451 437.798 123.331 437.221 123.331C436.652 123.331 436.151 123.451 435.716 123.69C435.29 123.93 434.93 124.259 434.638 124.679C434.354 125.09 434.14 125.566 433.998 126.105C433.856 126.637 433.785 127.202 433.785 127.801ZM452.45 130.777C452.45 130.477 452.382 130.2 452.248 129.946C452.12 129.684 451.854 129.448 451.45 129.238C451.053 129.021 450.454 128.834 449.653 128.677C448.979 128.535 448.369 128.366 447.823 128.171C447.284 127.977 446.823 127.741 446.441 127.464C446.067 127.187 445.779 126.861 445.577 126.487C445.375 126.112 445.273 125.674 445.273 125.173C445.273 124.694 445.378 124.241 445.588 123.814C445.805 123.387 446.108 123.009 446.498 122.68C446.894 122.35 447.37 122.092 447.924 121.905C448.478 121.718 449.096 121.624 449.777 121.624C450.75 121.624 451.581 121.796 452.27 122.141C452.959 122.485 453.487 122.945 453.854 123.522C454.22 124.091 454.404 124.724 454.404 125.42H452.326C452.326 125.083 452.225 124.757 452.023 124.443C451.828 124.121 451.54 123.855 451.158 123.646C450.784 123.436 450.323 123.331 449.777 123.331C449.2 123.331 448.732 123.421 448.373 123.601C448.021 123.773 447.763 123.994 447.598 124.263C447.441 124.533 447.362 124.817 447.362 125.117C447.362 125.341 447.4 125.543 447.475 125.723C447.557 125.895 447.699 126.056 447.901 126.206C448.104 126.348 448.388 126.483 448.755 126.61C449.122 126.738 449.59 126.865 450.159 126.992C451.154 127.217 451.974 127.486 452.618 127.801C453.262 128.115 453.741 128.501 454.056 128.958C454.37 129.414 454.527 129.968 454.527 130.62C454.527 131.151 454.415 131.638 454.19 132.08C453.973 132.521 453.655 132.903 453.236 133.225C452.824 133.54 452.33 133.787 451.753 133.966C451.184 134.139 450.544 134.225 449.833 134.225C448.762 134.225 447.856 134.034 447.115 133.652C446.374 133.27 445.812 132.776 445.431 132.169C445.049 131.563 444.858 130.923 444.858 130.249H446.947C446.977 130.818 447.141 131.271 447.441 131.608C447.74 131.937 448.107 132.173 448.542 132.315C448.976 132.45 449.406 132.518 449.833 132.518C450.402 132.518 450.877 132.443 451.259 132.293C451.649 132.143 451.944 131.937 452.146 131.675C452.349 131.413 452.45 131.114 452.45 130.777ZM467.285 126.195V127.902H461.805V126.195H467.285ZM480.93 117.648V134H478.796V117.648H480.93ZM486.186 117.648V119.423H473.552V117.648H486.186ZM486.624 128.059V127.801C486.624 126.925 486.751 126.112 487.006 125.364C487.26 124.608 487.627 123.952 488.106 123.398C488.586 122.837 489.166 122.403 489.847 122.096C490.528 121.781 491.292 121.624 492.138 121.624C492.992 121.624 493.759 121.781 494.44 122.096C495.129 122.403 495.713 122.837 496.192 123.398C496.679 123.952 497.05 124.608 497.304 125.364C497.559 126.112 497.686 126.925 497.686 127.801V128.059C497.686 128.935 497.559 129.747 497.304 130.496C497.05 131.245 496.679 131.9 496.192 132.461C495.713 133.015 495.133 133.45 494.452 133.764C493.778 134.071 493.014 134.225 492.161 134.225C491.307 134.225 490.54 134.071 489.858 133.764C489.177 133.45 488.593 133.015 488.106 132.461C487.627 131.9 487.26 131.245 487.006 130.496C486.751 129.747 486.624 128.935 486.624 128.059ZM488.702 127.801V128.059C488.702 128.666 488.773 129.238 488.915 129.777C489.057 130.309 489.271 130.781 489.555 131.192C489.847 131.604 490.21 131.93 490.645 132.169C491.079 132.402 491.584 132.518 492.161 132.518C492.73 132.518 493.228 132.402 493.654 132.169C494.089 131.93 494.448 131.604 494.732 131.192C495.017 130.781 495.23 130.309 495.373 129.777C495.522 129.238 495.597 128.666 495.597 128.059V127.801C495.597 127.202 495.522 126.637 495.373 126.105C495.23 125.566 495.013 125.09 494.721 124.679C494.437 124.259 494.077 123.93 493.643 123.69C493.216 123.451 492.715 123.331 492.138 123.331C491.569 123.331 491.068 123.451 490.633 123.69C490.207 123.93 489.847 124.259 489.555 124.679C489.271 125.09 489.057 125.566 488.915 126.105C488.773 126.637 488.702 127.202 488.702 127.801ZM507.951 131.642V116.75H510.04V134H508.13L507.951 131.642ZM499.775 128.059V127.823C499.775 126.895 499.887 126.053 500.112 125.296C500.344 124.533 500.67 123.878 501.089 123.331C501.516 122.785 502.021 122.365 502.605 122.073C503.196 121.774 503.855 121.624 504.582 121.624C505.345 121.624 506.012 121.759 506.581 122.028C507.157 122.29 507.644 122.676 508.041 123.185C508.445 123.687 508.763 124.293 508.995 125.004C509.227 125.716 509.388 126.521 509.478 127.419V128.452C509.396 129.343 509.235 130.144 508.995 130.855C508.763 131.567 508.445 132.173 508.041 132.675C507.644 133.176 507.157 133.562 506.581 133.832C506.004 134.094 505.33 134.225 504.559 134.225C503.848 134.225 503.196 134.071 502.605 133.764C502.021 133.457 501.516 133.027 501.089 132.473C500.67 131.919 500.344 131.267 500.112 130.519C499.887 129.762 499.775 128.943 499.775 128.059ZM501.864 127.823V128.059C501.864 128.666 501.924 129.235 502.043 129.766C502.171 130.298 502.365 130.766 502.627 131.17C502.889 131.574 503.223 131.892 503.627 132.125C504.031 132.349 504.514 132.461 505.076 132.461C505.764 132.461 506.33 132.315 506.771 132.023C507.221 131.731 507.58 131.346 507.85 130.867C508.119 130.388 508.329 129.867 508.479 129.306V126.599C508.389 126.187 508.258 125.791 508.085 125.409C507.921 125.019 507.704 124.675 507.434 124.375C507.172 124.069 506.846 123.825 506.457 123.646C506.075 123.466 505.622 123.376 505.098 123.376C504.529 123.376 504.039 123.496 503.627 123.735C503.223 123.967 502.889 124.289 502.627 124.701C502.365 125.105 502.171 125.577 502.043 126.116C501.924 126.648 501.864 127.217 501.864 127.823ZM512.724 128.059V127.801C512.724 126.925 512.851 126.112 513.105 125.364C513.36 124.608 513.727 123.952 514.206 123.398C514.685 122.837 515.265 122.403 515.947 122.096C516.628 121.781 517.392 121.624 518.238 121.624C519.091 121.624 519.859 121.781 520.54 122.096C521.229 122.403 521.813 122.837 522.292 123.398C522.779 123.952 523.149 124.608 523.404 125.364C523.658 126.112 523.786 126.925 523.786 127.801V128.059C523.786 128.935 523.658 129.747 523.404 130.496C523.149 131.245 522.779 131.9 522.292 132.461C521.813 133.015 521.233 133.45 520.551 133.764C519.877 134.071 519.114 134.225 518.26 134.225C517.407 134.225 516.639 134.071 515.958 133.764C515.277 133.45 514.693 133.015 514.206 132.461C513.727 131.9 513.36 131.245 513.105 130.496C512.851 129.747 512.724 128.935 512.724 128.059ZM514.801 127.801V128.059C514.801 128.666 514.872 129.238 515.015 129.777C515.157 130.309 515.37 130.781 515.655 131.192C515.947 131.604 516.31 131.93 516.744 132.169C517.178 132.402 517.684 132.518 518.26 132.518C518.829 132.518 519.327 132.402 519.754 132.169C520.188 131.93 520.548 131.604 520.832 131.192C521.117 130.781 521.33 130.309 521.472 129.777C521.622 129.238 521.697 128.666 521.697 128.059V127.801C521.697 127.202 521.622 126.637 521.472 126.105C521.33 125.566 521.113 125.09 520.821 124.679C520.536 124.259 520.177 123.93 519.743 123.69C519.316 123.451 518.814 123.331 518.238 123.331C517.669 123.331 517.167 123.451 516.733 123.69C516.306 123.93 515.947 124.259 515.655 124.679C515.37 125.09 515.157 125.566 515.015 126.105C514.872 126.637 514.801 127.202 514.801 127.801ZM533.466 130.777C533.466 130.477 533.399 130.2 533.264 129.946C533.137 129.684 532.871 129.448 532.467 129.238C532.07 129.021 531.471 128.834 530.67 128.677C529.996 128.535 529.386 128.366 528.839 128.171C528.3 127.977 527.84 127.741 527.458 127.464C527.084 127.187 526.795 126.861 526.593 126.487C526.391 126.112 526.29 125.674 526.29 125.173C526.29 124.694 526.395 124.241 526.604 123.814C526.822 123.387 527.125 123.009 527.514 122.68C527.911 122.35 528.386 122.092 528.94 121.905C529.494 121.718 530.112 121.624 530.793 121.624C531.767 121.624 532.598 121.796 533.287 122.141C533.975 122.485 534.503 122.945 534.87 123.522C535.237 124.091 535.42 124.724 535.42 125.42H533.343C533.343 125.083 533.242 124.757 533.04 124.443C532.845 124.121 532.557 123.855 532.175 123.646C531.8 123.436 531.34 123.331 530.793 123.331C530.217 123.331 529.749 123.421 529.39 123.601C529.038 123.773 528.779 123.994 528.615 124.263C528.458 124.533 528.379 124.817 528.379 125.117C528.379 125.341 528.416 125.543 528.491 125.723C528.574 125.895 528.716 126.056 528.918 126.206C529.12 126.348 529.405 126.483 529.771 126.61C530.138 126.738 530.606 126.865 531.175 126.992C532.171 127.217 532.991 127.486 533.635 127.801C534.279 128.115 534.758 128.501 535.072 128.958C535.387 129.414 535.544 129.968 535.544 130.62C535.544 131.151 535.432 131.638 535.207 132.08C534.99 132.521 534.672 132.903 534.252 133.225C533.841 133.54 533.347 133.787 532.77 133.966C532.201 134.139 531.561 134.225 530.85 134.225C529.779 134.225 528.873 134.034 528.132 133.652C527.391 133.27 526.829 132.776 526.447 132.169C526.065 131.563 525.875 130.923 525.875 130.249H527.963C527.993 130.818 528.158 131.271 528.458 131.608C528.757 131.937 529.124 132.173 529.558 132.315C529.992 132.45 530.423 132.518 530.85 132.518C531.419 132.518 531.894 132.443 532.276 132.293C532.665 132.143 532.961 131.937 533.163 131.675C533.365 131.413 533.466 131.114 533.466 130.777ZM543.428 128.059V127.801C543.428 126.925 543.555 126.112 543.81 125.364C544.064 124.608 544.431 123.952 544.91 123.398C545.389 122.837 545.97 122.403 546.651 122.096C547.332 121.781 548.096 121.624 548.942 121.624C549.795 121.624 550.563 121.781 551.244 122.096C551.933 122.403 552.517 122.837 552.996 123.398C553.483 123.952 553.853 124.608 554.108 125.364C554.362 126.112 554.49 126.925 554.49 127.801V128.059C554.49 128.935 554.362 129.747 554.108 130.496C553.853 131.245 553.483 131.9 552.996 132.461C552.517 133.015 551.937 133.45 551.255 133.764C550.582 134.071 549.818 134.225 548.964 134.225C548.111 134.225 547.343 134.071 546.662 133.764C545.981 133.45 545.397 133.015 544.91 132.461C544.431 131.9 544.064 131.245 543.81 130.496C543.555 129.747 543.428 128.935 543.428 128.059ZM545.505 127.801V128.059C545.505 128.666 545.576 129.238 545.719 129.777C545.861 130.309 546.074 130.781 546.359 131.192C546.651 131.604 547.014 131.93 547.448 132.169C547.882 132.402 548.388 132.518 548.964 132.518C549.533 132.518 550.031 132.402 550.458 132.169C550.892 131.93 551.252 131.604 551.536 131.192C551.821 130.781 552.034 130.309 552.176 129.777C552.326 129.238 552.401 128.666 552.401 128.059V127.801C552.401 127.202 552.326 126.637 552.176 126.105C552.034 125.566 551.817 125.09 551.525 124.679C551.24 124.259 550.881 123.93 550.447 123.69C550.02 123.451 549.518 123.331 548.942 123.331C548.373 123.331 547.871 123.451 547.437 123.69C547.01 123.93 546.651 124.259 546.359 124.679C546.074 125.09 545.861 125.566 545.719 126.105C545.576 126.637 545.505 127.202 545.505 127.801ZM564.17 130.777C564.17 130.477 564.103 130.2 563.968 129.946C563.841 129.684 563.575 129.448 563.171 129.238C562.774 129.021 562.175 128.834 561.374 128.677C560.7 128.535 560.09 128.366 559.543 128.171C559.004 127.977 558.544 127.741 558.162 127.464C557.788 127.187 557.5 126.861 557.297 126.487C557.095 126.112 556.994 125.674 556.994 125.173C556.994 124.694 557.099 124.241 557.309 123.814C557.526 123.387 557.829 123.009 558.218 122.68C558.615 122.35 559.09 122.092 559.645 121.905C560.199 121.718 560.816 121.624 561.498 121.624C562.471 121.624 563.302 121.796 563.991 122.141C564.68 122.485 565.207 122.945 565.574 123.522C565.941 124.091 566.125 124.724 566.125 125.42H564.047C564.047 125.083 563.946 124.757 563.744 124.443C563.549 124.121 563.261 123.855 562.879 123.646C562.505 123.436 562.044 123.331 561.498 123.331C560.921 123.331 560.453 123.421 560.094 123.601C559.742 123.773 559.484 123.994 559.319 124.263C559.162 124.533 559.083 124.817 559.083 125.117C559.083 125.341 559.12 125.543 559.195 125.723C559.278 125.895 559.42 126.056 559.622 126.206C559.824 126.348 560.109 126.483 560.476 126.61C560.842 126.738 561.31 126.865 561.879 126.992C562.875 127.217 563.695 127.486 564.339 127.801C564.983 128.115 565.462 128.501 565.776 128.958C566.091 129.414 566.248 129.968 566.248 130.62C566.248 131.151 566.136 131.638 565.911 132.08C565.694 132.521 565.376 132.903 564.957 133.225C564.545 133.54 564.051 133.787 563.474 133.966C562.905 134.139 562.265 134.225 561.554 134.225C560.483 134.225 559.577 134.034 558.836 133.652C558.095 133.27 557.533 132.776 557.151 132.169C556.77 131.563 556.579 130.923 556.579 130.249H558.667C558.697 130.818 558.862 131.271 559.162 131.608C559.461 131.937 559.828 132.173 560.262 132.315C560.696 132.45 561.127 132.518 561.554 132.518C562.123 132.518 562.598 132.443 562.98 132.293C563.369 132.143 563.665 131.937 563.867 131.675C564.069 131.413 564.17 131.114 564.17 130.777ZM582.341 131.642V116.75H584.43V134H582.521L582.341 131.642ZM574.166 128.059V127.823C574.166 126.895 574.278 126.053 574.502 125.296C574.735 124.533 575.06 123.878 575.479 123.331C575.906 122.785 576.412 122.365 576.996 122.073C577.587 121.774 578.246 121.624 578.972 121.624C579.736 121.624 580.402 121.759 580.971 122.028C581.548 122.29 582.034 122.676 582.431 123.185C582.835 123.687 583.154 124.293 583.386 125.004C583.618 125.716 583.779 126.521 583.869 127.419V128.452C583.786 129.343 583.625 130.144 583.386 130.855C583.154 131.567 582.835 132.173 582.431 132.675C582.034 133.176 581.548 133.562 580.971 133.832C580.395 134.094 579.721 134.225 578.95 134.225C578.238 134.225 577.587 134.071 576.996 133.764C576.412 133.457 575.906 133.027 575.479 132.473C575.06 131.919 574.735 131.267 574.502 130.519C574.278 129.762 574.166 128.943 574.166 128.059ZM576.254 127.823V128.059C576.254 128.666 576.314 129.235 576.434 129.766C576.561 130.298 576.756 130.766 577.018 131.17C577.28 131.574 577.613 131.892 578.018 132.125C578.422 132.349 578.905 132.461 579.466 132.461C580.155 132.461 580.72 132.315 581.162 132.023C581.611 131.731 581.971 131.346 582.24 130.867C582.51 130.388 582.719 129.867 582.869 129.306V126.599C582.779 126.187 582.648 125.791 582.476 125.409C582.311 125.019 582.094 124.675 581.825 124.375C581.563 124.069 581.237 123.825 580.848 123.646C580.466 123.466 580.013 123.376 579.489 123.376C578.92 123.376 578.429 123.496 578.018 123.735C577.613 123.967 577.28 124.289 577.018 124.701C576.756 125.105 576.561 125.577 576.434 126.116C576.314 126.648 576.254 127.217 576.254 127.823ZM589.922 121.849V134H587.833V121.849H589.922ZM587.676 118.625C587.676 118.289 587.777 118.004 587.979 117.772C588.189 117.54 588.496 117.424 588.9 117.424C589.297 117.424 589.6 117.54 589.81 117.772C590.027 118.004 590.135 118.289 590.135 118.625C590.135 118.947 590.027 119.224 589.81 119.457C589.6 119.681 589.297 119.793 588.9 119.793C588.496 119.793 588.189 119.681 587.979 119.457C587.777 119.224 587.676 118.947 587.676 118.625ZM595.335 123.758V134H593.257V121.849H595.279L595.335 123.758ZM599.131 121.781L599.12 123.713C598.947 123.675 598.783 123.653 598.625 123.646C598.476 123.631 598.304 123.623 598.109 123.623C597.63 123.623 597.207 123.698 596.84 123.848C596.473 123.997 596.162 124.207 595.908 124.477C595.653 124.746 595.451 125.068 595.301 125.442C595.159 125.809 595.065 126.214 595.021 126.655L594.437 126.992C594.437 126.258 594.508 125.57 594.65 124.926C594.8 124.282 595.028 123.713 595.335 123.219C595.642 122.717 596.031 122.328 596.503 122.051C596.982 121.766 597.551 121.624 598.21 121.624C598.36 121.624 598.532 121.643 598.727 121.68C598.921 121.71 599.056 121.744 599.131 121.781ZM605.869 134.225C605.023 134.225 604.256 134.082 603.567 133.798C602.886 133.506 602.298 133.098 601.804 132.574C601.317 132.05 600.943 131.428 600.681 130.709C600.419 129.991 600.288 129.205 600.288 128.351V127.879C600.288 126.891 600.434 126.011 600.726 125.24C601.018 124.462 601.414 123.803 601.916 123.264C602.418 122.725 602.987 122.317 603.623 122.04C604.259 121.763 604.918 121.624 605.6 121.624C606.468 121.624 607.217 121.774 607.846 122.073C608.482 122.373 609.002 122.792 609.407 123.331C609.811 123.863 610.111 124.492 610.305 125.218C610.5 125.937 610.597 126.723 610.597 127.576V128.508H601.523V126.812H608.52V126.655C608.49 126.116 608.377 125.592 608.183 125.083C607.995 124.574 607.696 124.155 607.284 123.825C606.872 123.496 606.311 123.331 605.6 123.331C605.128 123.331 604.694 123.432 604.297 123.634C603.9 123.829 603.559 124.121 603.275 124.51C602.99 124.9 602.77 125.375 602.612 125.937C602.455 126.498 602.376 127.146 602.376 127.879V128.351C602.376 128.928 602.455 129.47 602.612 129.979C602.777 130.481 603.013 130.923 603.32 131.305C603.634 131.687 604.012 131.986 604.454 132.203C604.903 132.42 605.412 132.529 605.981 132.529C606.715 132.529 607.337 132.379 607.846 132.08C608.355 131.78 608.8 131.38 609.182 130.878L610.44 131.877C610.178 132.274 609.845 132.652 609.44 133.012C609.036 133.371 608.538 133.663 607.947 133.888C607.363 134.112 606.67 134.225 605.869 134.225ZM615.28 121.849V134H613.191V121.849H615.28ZM613.034 118.625C613.034 118.289 613.135 118.004 613.337 117.772C613.547 117.54 613.854 117.424 614.258 117.424C614.655 117.424 614.958 117.54 615.168 117.772C615.385 118.004 615.494 118.289 615.494 118.625C615.494 118.947 615.385 119.224 615.168 119.457C614.958 119.681 614.655 119.793 614.258 119.793C613.854 119.793 613.547 119.681 613.337 119.457C613.135 119.224 613.034 118.947 613.034 118.625ZM623.703 121.849V123.443H617.133V121.849H623.703ZM619.357 118.895H621.435V130.99C621.435 131.402 621.498 131.713 621.625 131.922C621.753 132.132 621.917 132.271 622.12 132.338C622.322 132.405 622.539 132.439 622.771 132.439C622.943 132.439 623.123 132.424 623.31 132.394C623.505 132.357 623.651 132.327 623.748 132.304L623.759 134C623.595 134.052 623.377 134.101 623.108 134.146C622.846 134.198 622.528 134.225 622.153 134.225C621.644 134.225 621.176 134.124 620.75 133.921C620.323 133.719 619.982 133.382 619.728 132.911C619.48 132.431 619.357 131.788 619.357 130.979V118.895ZM625.365 128.059V127.801C625.365 126.925 625.493 126.112 625.747 125.364C626.002 124.608 626.368 123.952 626.848 123.398C627.327 122.837 627.907 122.403 628.588 122.096C629.27 121.781 630.033 121.624 630.879 121.624C631.733 121.624 632.5 121.781 633.182 122.096C633.87 122.403 634.454 122.837 634.934 123.398C635.42 123.952 635.791 124.608 636.045 125.364C636.3 126.112 636.427 126.925 636.427 127.801V128.059C636.427 128.935 636.3 129.747 636.045 130.496C635.791 131.245 635.42 131.9 634.934 132.461C634.454 133.015 633.874 133.45 633.193 133.764C632.519 134.071 631.755 134.225 630.902 134.225C630.048 134.225 629.281 134.071 628.6 133.764C627.918 133.45 627.334 133.015 626.848 132.461C626.368 131.9 626.002 131.245 625.747 130.496C625.493 129.747 625.365 128.935 625.365 128.059ZM627.443 127.801V128.059C627.443 128.666 627.514 129.238 627.656 129.777C627.799 130.309 628.012 130.781 628.296 131.192C628.588 131.604 628.951 131.93 629.386 132.169C629.82 132.402 630.325 132.518 630.902 132.518C631.471 132.518 631.969 132.402 632.396 132.169C632.83 131.93 633.189 131.604 633.474 131.192C633.758 130.781 633.972 130.309 634.114 129.777C634.264 129.238 634.338 128.666 634.338 128.059V127.801C634.338 127.202 634.264 126.637 634.114 126.105C633.972 125.566 633.754 125.09 633.462 124.679C633.178 124.259 632.819 123.93 632.384 123.69C631.958 123.451 631.456 123.331 630.879 123.331C630.31 123.331 629.809 123.451 629.375 123.69C628.948 123.93 628.588 124.259 628.296 124.679C628.012 125.09 627.799 125.566 627.656 126.105C627.514 126.637 627.443 127.202 627.443 127.801ZM646.108 130.777C646.108 130.477 646.041 130.2 645.906 129.946C645.778 129.684 645.513 129.448 645.108 129.238C644.712 129.021 644.113 128.834 643.312 128.677C642.638 128.535 642.028 128.366 641.481 128.171C640.942 127.977 640.481 127.741 640.1 127.464C639.725 127.187 639.437 126.861 639.235 126.487C639.033 126.112 638.932 125.674 638.932 125.173C638.932 124.694 639.036 124.241 639.246 123.814C639.463 123.387 639.766 123.009 640.156 122.68C640.553 122.35 641.028 122.092 641.582 121.905C642.136 121.718 642.754 121.624 643.435 121.624C644.408 121.624 645.239 121.796 645.928 122.141C646.617 122.485 647.145 122.945 647.512 123.522C647.879 124.091 648.062 124.724 648.062 125.42H645.984C645.984 125.083 645.883 124.757 645.681 124.443C645.486 124.121 645.198 123.855 644.816 123.646C644.442 123.436 643.982 123.331 643.435 123.331C642.859 123.331 642.391 123.421 642.031 123.601C641.679 123.773 641.421 123.994 641.256 124.263C641.099 124.533 641.021 124.817 641.021 125.117C641.021 125.341 641.058 125.543 641.133 125.723C641.215 125.895 641.357 126.056 641.56 126.206C641.762 126.348 642.046 126.483 642.413 126.61C642.78 126.738 643.248 126.865 643.817 126.992C644.813 127.217 645.632 127.486 646.276 127.801C646.92 128.115 647.399 128.501 647.714 128.958C648.028 129.414 648.186 129.968 648.186 130.62C648.186 131.151 648.073 131.638 647.849 132.08C647.632 132.521 647.313 132.903 646.894 133.225C646.482 133.54 645.988 133.787 645.412 133.966C644.843 134.139 644.202 134.225 643.491 134.225C642.421 134.225 641.515 134.034 640.773 133.652C640.032 133.27 639.471 132.776 639.089 132.169C638.707 131.563 638.516 130.923 638.516 130.249H640.605C640.635 130.818 640.8 131.271 641.099 131.608C641.399 131.937 641.765 132.173 642.2 132.315C642.634 132.45 643.064 132.518 643.491 132.518C644.06 132.518 644.536 132.443 644.917 132.293C645.307 132.143 645.603 131.937 645.805 131.675C646.007 131.413 646.108 131.114 646.108 130.777ZM658.697 123.758V134H656.62V121.849H658.641L658.697 123.758ZM662.493 121.781L662.482 123.713C662.31 123.675 662.145 123.653 661.988 123.646C661.838 123.631 661.666 123.623 661.471 123.623C660.992 123.623 660.569 123.698 660.202 123.848C659.835 123.997 659.525 124.207 659.27 124.477C659.015 124.746 658.813 125.068 658.664 125.442C658.521 125.809 658.428 126.214 658.383 126.655L657.799 126.992C657.799 126.258 657.87 125.57 658.012 124.926C658.162 124.282 658.39 123.713 658.697 123.219C659.004 122.717 659.394 122.328 659.865 122.051C660.344 121.766 660.913 121.624 661.572 121.624C661.722 121.624 661.894 121.643 662.089 121.68C662.284 121.71 662.418 121.744 662.493 121.781ZM669.231 134.225C668.385 134.225 667.618 134.082 666.929 133.798C666.248 133.506 665.66 133.098 665.166 132.574C664.679 132.05 664.305 131.428 664.043 130.709C663.781 129.991 663.65 129.205 663.65 128.351V127.879C663.65 126.891 663.796 126.011 664.088 125.24C664.38 124.462 664.777 123.803 665.278 123.264C665.78 122.725 666.349 122.317 666.985 122.04C667.622 121.763 668.281 121.624 668.962 121.624C669.83 121.624 670.579 121.774 671.208 122.073C671.844 122.373 672.365 122.792 672.769 123.331C673.173 123.863 673.473 124.492 673.667 125.218C673.862 125.937 673.959 126.723 673.959 127.576V128.508H664.885V126.812H671.882V126.655C671.852 126.116 671.74 125.592 671.545 125.083C671.358 124.574 671.058 124.155 670.646 123.825C670.235 123.496 669.673 123.331 668.962 123.331C668.49 123.331 668.056 123.432 667.659 123.634C667.262 123.829 666.922 124.121 666.637 124.51C666.353 124.9 666.132 125.375 665.975 125.937C665.817 126.498 665.739 127.146 665.739 127.879V128.351C665.739 128.928 665.817 129.47 665.975 129.979C666.139 130.481 666.375 130.923 666.682 131.305C666.997 131.687 667.375 131.986 667.816 132.203C668.266 132.42 668.775 132.529 669.344 132.529C670.077 132.529 670.699 132.379 671.208 132.08C671.717 131.78 672.163 131.38 672.544 130.878L673.802 131.877C673.54 132.274 673.207 132.652 672.803 133.012C672.398 133.371 671.901 133.663 671.309 133.888C670.725 134.112 670.033 134.225 669.231 134.225ZM683.46 130.777C683.46 130.477 683.393 130.2 683.258 129.946C683.131 129.684 682.865 129.448 682.461 129.238C682.064 129.021 681.465 128.834 680.664 128.677C679.99 128.535 679.38 128.366 678.833 128.171C678.294 127.977 677.834 127.741 677.452 127.464C677.078 127.187 676.79 126.861 676.587 126.487C676.385 126.112 676.284 125.674 676.284 125.173C676.284 124.694 676.389 124.241 676.599 123.814C676.816 123.387 677.119 123.009 677.508 122.68C677.905 122.35 678.381 122.092 678.935 121.905C679.489 121.718 680.106 121.624 680.788 121.624C681.761 121.624 682.592 121.796 683.281 122.141C683.97 122.485 684.497 122.945 684.864 123.522C685.231 124.091 685.415 124.724 685.415 125.42H683.337C683.337 125.083 683.236 124.757 683.034 124.443C682.839 124.121 682.551 123.855 682.169 123.646C681.795 123.436 681.334 123.331 680.788 123.331C680.211 123.331 679.743 123.421 679.384 123.601C679.032 123.773 678.774 123.994 678.609 124.263C678.452 124.533 678.373 124.817 678.373 125.117C678.373 125.341 678.41 125.543 678.485 125.723C678.568 125.895 678.71 126.056 678.912 126.206C679.114 126.348 679.399 126.483 679.766 126.61C680.132 126.738 680.6 126.865 681.169 126.992C682.165 127.217 682.985 127.486 683.629 127.801C684.273 128.115 684.752 128.501 685.066 128.958C685.381 129.414 685.538 129.968 685.538 130.62C685.538 131.151 685.426 131.638 685.201 132.08C684.984 132.521 684.666 132.903 684.247 133.225C683.835 133.54 683.341 133.787 682.764 133.966C682.195 134.139 681.555 134.225 680.844 134.225C679.773 134.225 678.867 134.034 678.126 133.652C677.385 133.27 676.823 132.776 676.441 132.169C676.06 131.563 675.869 130.923 675.869 130.249H677.958C677.987 130.818 678.152 131.271 678.452 131.608C678.751 131.937 679.118 132.173 679.552 132.315C679.986 132.45 680.417 132.518 680.844 132.518C681.413 132.518 681.888 132.443 682.27 132.293C682.659 132.143 682.955 131.937 683.157 131.675C683.359 131.413 683.46 131.114 683.46 130.777ZM693.31 134.225C692.464 134.225 691.696 134.082 691.007 133.798C690.326 133.506 689.738 133.098 689.244 132.574C688.757 132.05 688.383 131.428 688.121 130.709C687.859 129.991 687.728 129.205 687.728 128.351V127.879C687.728 126.891 687.874 126.011 688.166 125.24C688.458 124.462 688.855 123.803 689.356 123.264C689.858 122.725 690.427 122.317 691.063 122.04C691.7 121.763 692.359 121.624 693.04 121.624C693.909 121.624 694.657 121.774 695.286 122.073C695.923 122.373 696.443 122.792 696.847 123.331C697.251 123.863 697.551 124.492 697.746 125.218C697.94 125.937 698.038 126.723 698.038 127.576V128.508H688.963V126.812H695.96V126.655C695.93 126.116 695.818 125.592 695.623 125.083C695.436 124.574 695.136 124.155 694.725 123.825C694.313 123.496 693.751 123.331 693.04 123.331C692.568 123.331 692.134 123.432 691.737 123.634C691.34 123.829 691 124.121 690.715 124.51C690.431 124.9 690.21 125.375 690.053 125.937C689.896 126.498 689.817 127.146 689.817 127.879V128.351C689.817 128.928 689.896 129.47 690.053 129.979C690.217 130.481 690.453 130.923 690.76 131.305C691.075 131.687 691.453 131.986 691.895 132.203C692.344 132.42 692.853 132.529 693.422 132.529C694.156 132.529 694.777 132.379 695.286 132.08C695.795 131.78 696.241 131.38 696.623 130.878L697.88 131.877C697.618 132.274 697.285 132.652 696.881 133.012C696.477 133.371 695.979 133.663 695.387 133.888C694.803 134.112 694.111 134.225 693.31 134.225ZM702.541 123.758V134H700.463V121.849H702.485L702.541 123.758ZM706.337 121.781L706.326 123.713C706.153 123.675 705.989 123.653 705.832 123.646C705.682 123.631 705.51 123.623 705.315 123.623C704.836 123.623 704.413 123.698 704.046 123.848C703.679 123.997 703.368 124.207 703.114 124.477C702.859 124.746 702.657 125.068 702.507 125.442C702.365 125.809 702.271 126.214 702.227 126.655L701.643 126.992C701.643 126.258 701.714 125.57 701.856 124.926C702.006 124.282 702.234 123.713 702.541 123.219C702.848 122.717 703.237 122.328 703.709 122.051C704.188 121.766 704.757 121.624 705.416 121.624C705.566 121.624 705.738 121.643 705.933 121.68C706.127 121.71 706.262 121.744 706.337 121.781ZM712.154 132.125L715.479 121.849H717.601L713.232 134H711.84L712.154 132.125ZM709.38 121.849L712.806 132.181L713.042 134H711.649L707.247 121.849H709.38ZM726.585 131.922V125.667C726.585 125.188 726.488 124.772 726.293 124.42C726.106 124.061 725.822 123.784 725.44 123.589C725.058 123.395 724.586 123.297 724.025 123.297C723.501 123.297 723.04 123.387 722.644 123.567C722.254 123.747 721.947 123.982 721.723 124.274C721.506 124.566 721.397 124.881 721.397 125.218H719.319C719.319 124.784 719.432 124.353 719.656 123.926C719.881 123.5 720.203 123.114 720.622 122.77C721.049 122.418 721.558 122.141 722.149 121.938C722.748 121.729 723.415 121.624 724.148 121.624C725.032 121.624 725.811 121.774 726.484 122.073C727.166 122.373 727.697 122.826 728.079 123.432C728.468 124.031 728.663 124.784 728.663 125.689V131.35C728.663 131.754 728.697 132.184 728.764 132.641C728.839 133.098 728.948 133.491 729.09 133.82V134H726.922C726.818 133.76 726.735 133.442 726.675 133.045C726.615 132.641 726.585 132.267 726.585 131.922ZM726.945 126.633L726.967 128.093H724.867C724.276 128.093 723.748 128.141 723.284 128.239C722.819 128.329 722.43 128.467 722.116 128.654C721.801 128.841 721.562 129.077 721.397 129.362C721.232 129.639 721.15 129.965 721.15 130.339C721.15 130.721 721.236 131.069 721.408 131.383C721.58 131.698 721.839 131.949 722.183 132.136C722.535 132.315 722.965 132.405 723.475 132.405C724.111 132.405 724.673 132.271 725.159 132.001C725.646 131.731 726.031 131.402 726.316 131.013C726.608 130.623 726.765 130.245 726.788 129.878L727.675 130.878C727.622 131.192 727.48 131.541 727.248 131.922C727.016 132.304 726.705 132.671 726.316 133.023C725.934 133.367 725.477 133.656 724.946 133.888C724.422 134.112 723.83 134.225 723.171 134.225C722.348 134.225 721.625 134.064 721.004 133.742C720.39 133.42 719.911 132.989 719.566 132.45C719.229 131.904 719.061 131.293 719.061 130.62C719.061 129.968 719.188 129.396 719.443 128.901C719.697 128.4 720.064 127.984 720.543 127.655C721.023 127.318 721.599 127.063 722.273 126.891C722.947 126.719 723.699 126.633 724.53 126.633H726.945ZM739.59 131.642V116.75H741.679V134H739.77L739.59 131.642ZM731.415 128.059V127.823C731.415 126.895 731.527 126.053 731.751 125.296C731.984 124.533 732.309 123.878 732.729 123.331C733.155 122.785 733.661 122.365 734.245 122.073C734.836 121.774 735.495 121.624 736.221 121.624C736.985 121.624 737.651 121.759 738.22 122.028C738.797 122.29 739.283 122.676 739.68 123.185C740.084 123.687 740.403 124.293 740.635 125.004C740.867 125.716 741.028 126.521 741.118 127.419V128.452C741.035 129.343 740.874 130.144 740.635 130.855C740.403 131.567 740.084 132.173 739.68 132.675C739.283 133.176 738.797 133.562 738.22 133.832C737.644 134.094 736.97 134.225 736.199 134.225C735.487 134.225 734.836 134.071 734.245 133.764C733.661 133.457 733.155 133.027 732.729 132.473C732.309 131.919 731.984 131.267 731.751 130.519C731.527 129.762 731.415 128.943 731.415 128.059ZM733.503 127.823V128.059C733.503 128.666 733.563 129.235 733.683 129.766C733.81 130.298 734.005 130.766 734.267 131.17C734.529 131.574 734.862 131.892 735.267 132.125C735.671 132.349 736.154 132.461 736.715 132.461C737.404 132.461 737.969 132.315 738.411 132.023C738.86 131.731 739.22 131.346 739.489 130.867C739.759 130.388 739.968 129.867 740.118 129.306V126.599C740.028 126.187 739.897 125.791 739.725 125.409C739.56 125.019 739.343 124.675 739.074 124.375C738.812 124.069 738.486 123.825 738.097 123.646C737.715 123.466 737.262 123.376 736.738 123.376C736.169 123.376 735.678 123.496 735.267 123.735C734.862 123.967 734.529 124.289 734.267 124.701C734.005 125.105 733.81 125.577 733.683 126.116C733.563 126.648 733.503 127.217 733.503 127.823ZM744.363 128.059V127.801C744.363 126.925 744.491 126.112 744.745 125.364C745 124.608 745.367 123.952 745.846 123.398C746.325 122.837 746.905 122.403 747.586 122.096C748.268 121.781 749.031 121.624 749.877 121.624C750.731 121.624 751.498 121.781 752.18 122.096C752.868 122.403 753.452 122.837 753.932 123.398C754.418 123.952 754.789 124.608 755.043 125.364C755.298 126.112 755.425 126.925 755.425 127.801V128.059C755.425 128.935 755.298 129.747 755.043 130.496C754.789 131.245 754.418 131.9 753.932 132.461C753.452 133.015 752.872 133.45 752.191 133.764C751.517 134.071 750.753 134.225 749.9 134.225C749.046 134.225 748.279 134.071 747.598 133.764C746.916 133.45 746.332 133.015 745.846 132.461C745.367 131.9 745 131.245 744.745 130.496C744.491 129.747 744.363 128.935 744.363 128.059ZM746.441 127.801V128.059C746.441 128.666 746.512 129.238 746.654 129.777C746.797 130.309 747.01 130.781 747.294 131.192C747.586 131.604 747.95 131.93 748.384 132.169C748.818 132.402 749.323 132.518 749.9 132.518C750.469 132.518 750.967 132.402 751.394 132.169C751.828 131.93 752.187 131.604 752.472 131.192C752.756 130.781 752.97 130.309 753.112 129.777C753.262 129.238 753.336 128.666 753.336 128.059V127.801C753.336 127.202 753.262 126.637 753.112 126.105C752.97 125.566 752.752 125.09 752.46 124.679C752.176 124.259 751.817 123.93 751.382 123.69C750.956 123.451 750.454 123.331 749.877 123.331C749.308 123.331 748.807 123.451 748.373 123.69C747.946 123.93 747.586 124.259 747.294 124.679C747.01 125.09 746.797 125.566 746.654 126.105C746.512 126.637 746.441 127.202 746.441 127.801ZM765.106 130.777C765.106 130.477 765.039 130.2 764.904 129.946C764.777 129.684 764.511 129.448 764.106 129.238C763.71 129.021 763.111 128.834 762.31 128.677C761.636 128.535 761.026 128.366 760.479 128.171C759.94 127.977 759.479 127.741 759.098 127.464C758.723 127.187 758.435 126.861 758.233 126.487C758.031 126.112 757.93 125.674 757.93 125.173C757.93 124.694 758.035 124.241 758.244 123.814C758.461 123.387 758.764 123.009 759.154 122.68C759.551 122.35 760.026 122.092 760.58 121.905C761.134 121.718 761.752 121.624 762.433 121.624C763.406 121.624 764.237 121.796 764.926 122.141C765.615 122.485 766.143 122.945 766.51 123.522C766.877 124.091 767.06 124.724 767.06 125.42H764.982C764.982 125.083 764.881 124.757 764.679 124.443C764.485 124.121 764.196 123.855 763.814 123.646C763.44 123.436 762.98 123.331 762.433 123.331C761.857 123.331 761.389 123.421 761.029 123.601C760.677 123.773 760.419 123.994 760.254 124.263C760.097 124.533 760.019 124.817 760.019 125.117C760.019 125.341 760.056 125.543 760.131 125.723C760.213 125.895 760.355 126.056 760.558 126.206C760.76 126.348 761.044 126.483 761.411 126.61C761.778 126.738 762.246 126.865 762.815 126.992C763.811 127.217 764.631 127.486 765.274 127.801C765.918 128.115 766.397 128.501 766.712 128.958C767.026 129.414 767.184 129.968 767.184 130.62C767.184 131.151 767.071 131.638 766.847 132.08C766.63 132.521 766.311 132.903 765.892 133.225C765.48 133.54 764.986 133.787 764.41 133.966C763.841 134.139 763.201 134.225 762.489 134.225C761.419 134.225 760.513 134.034 759.771 133.652C759.03 133.27 758.469 132.776 758.087 132.169C757.705 131.563 757.514 130.923 757.514 130.249H759.603C759.633 130.818 759.798 131.271 760.097 131.608C760.397 131.937 760.764 132.173 761.198 132.315C761.632 132.45 762.062 132.518 762.489 132.518C763.058 132.518 763.534 132.443 763.916 132.293C764.305 132.143 764.601 131.937 764.803 131.675C765.005 131.413 765.106 131.114 765.106 130.777Z" fill="white"/>
<rect x="511" y="48" width="68" height="45" rx="12" fill="#F01958" fill-opacity="0.71"/>
<rect x="224" y="161" width="199" height="50" rx="12" fill="#F0B119" fill-opacity="0.53"/>
</svg>
