<svg width="27" height="27" viewBox="0 0 27 27" fill="none" xmlns="http://www.w3.org/2000/svg">
<path d="M13.5015 0.574098C6.04189 0.571109 0 6.5538 0 13.938C0 19.7773 3.77958 24.741 9.04323 26.5639C9.75209 26.7402 9.6435 26.2411 9.6435 25.9004V23.5845C5.55022 24.0596 5.38431 21.3761 5.10982 20.9278C4.5548 19.9895 3.24265 19.7504 3.63479 19.3021C4.56686 18.827 5.51704 19.4217 6.61803 21.0324C7.41437 22.2009 8.96782 22.0036 9.75511 21.8094C9.92705 21.1071 10.2951 20.4796 10.8018 19.9925C6.56072 19.2394 4.7931 16.6754 4.7931 13.6272C4.7931 12.148 5.28477 10.7883 6.25003 9.69158C5.63468 7.88362 6.30734 6.33565 6.39783 6.10555C8.15037 5.95016 9.97229 7.34871 10.1141 7.45928C11.1095 7.19331 12.2467 7.05286 13.5196 7.05286C14.7986 7.05286 15.9388 7.19929 16.9432 7.46824C17.2841 7.21124 18.9733 6.00992 20.6022 6.15635C20.6896 6.38646 21.3472 7.89857 20.7681 9.68262C21.7454 10.7823 22.2431 12.154 22.2431 13.6362C22.2431 16.6903 20.4634 19.2573 16.2103 19.9984C16.5746 20.3534 16.8638 20.7766 17.0611 21.2436C17.2585 21.7105 17.3599 22.2117 17.3595 22.7178V26.0797C17.3836 26.3487 17.3595 26.6147 17.812 26.6147C23.1541 24.8306 27 19.8311 27 13.941C27 6.5538 20.9551 0.574098 13.5015 0.574098Z" fill="#1F3056"/>
</svg>
