<svg width="27" height="28" viewBox="0 0 27 28" fill="none" xmlns="http://www.w3.org/2000/svg">
<path d="M13.2882 6.93109C9.51417 6.93109 6.46835 9.98165 6.46835 13.7616C6.46835 17.5415 9.51417 20.592 13.2882 20.592C17.0622 20.592 20.108 17.5415 20.108 13.7616C20.108 9.98165 17.0622 6.93109 13.2882 6.93109ZM13.2882 18.2009C10.8475 18.2009 8.85579 16.206 8.85579 13.7616C8.85579 11.3171 10.8475 9.32225 13.2882 9.32225C15.7288 9.32225 17.7206 11.3171 17.7206 13.7616C17.7206 16.206 15.7288 18.2009 13.2882 18.2009ZM20.3873 5.05945C19.5062 5.05945 18.7946 5.77214 18.7946 6.65467C18.7946 7.5372 19.5062 8.24989 20.3873 8.24989C21.2685 8.24989 21.9801 7.54053 21.9801 6.65467C21.9803 6.44511 21.9393 6.23755 21.8594 6.0439C21.7794 5.85024 21.6621 5.67428 21.5141 5.52609C21.3662 5.37791 21.1905 5.26042 20.9971 5.18034C20.8038 5.10027 20.5966 5.05919 20.3873 5.05945ZM26.582 13.7616C26.582 11.9232 26.5987 10.1015 26.4956 8.26654C26.3925 6.13514 25.907 4.24352 24.3509 2.68494C22.7914 1.12302 20.906 0.640129 18.778 0.536889C16.9425 0.433649 15.1236 0.450301 13.2915 0.450301C11.456 0.450301 9.6372 0.433649 7.80505 0.536889C5.67697 0.640129 3.7883 1.12635 2.23215 2.68494C0.672664 4.24686 0.190521 6.13514 0.0874422 8.26654C-0.0156366 10.1049 0.000989038 11.9266 0.000989038 13.7616C0.000989038 15.5966 -0.0156366 17.4216 0.0874422 19.2566C0.190521 21.388 0.675989 23.2796 2.23215 24.8382C3.79163 26.4001 5.67697 26.883 7.80505 26.9862C9.64052 27.0895 11.4594 27.0728 13.2915 27.0728C15.127 27.0728 16.9458 27.0895 18.778 26.9862C20.906 26.883 22.7947 26.3968 24.3509 24.8382C25.9104 23.2763 26.3925 21.388 26.4956 19.2566C26.602 17.4216 26.582 15.5999 26.582 13.7616ZM23.6559 21.6144C23.4132 22.2205 23.1206 22.6735 22.6517 23.1397C22.1829 23.6093 21.734 23.9023 21.1288 24.1455C19.3798 24.8415 15.2267 24.685 13.2882 24.685C11.3496 24.685 7.19323 24.8415 5.44422 24.1488C4.83904 23.9057 4.38683 23.6126 3.92131 23.143C3.45247 22.6735 3.15986 22.2239 2.91712 21.6178C2.2255 19.8627 2.38178 15.7031 2.38178 13.7616C2.38178 11.82 2.2255 7.65709 2.91712 5.90535C3.15986 5.29923 3.45247 4.84631 3.92131 4.38007C4.39015 3.91382 4.83904 3.61743 5.44422 3.37431C7.19323 2.68161 11.3496 2.83813 13.2882 2.83813C15.2267 2.83813 19.3831 2.68161 21.1321 3.37431C21.7373 3.61743 22.1895 3.91049 22.6551 4.38007C23.1239 4.84964 23.4165 5.29923 23.6592 5.90535C24.3509 7.65709 24.1946 11.82 24.1946 13.7616C24.1946 15.7031 24.3509 19.8627 23.6559 21.6144Z" fill="#1F3056"/>
</svg>
