<svg width="55" height="55" viewBox="0 0 55 55" fill="none" xmlns="http://www.w3.org/2000/svg">
<path d="M39.869 32.8952C39.1999 32.5515 35.8668 30.9187 35.2468 30.6977C34.6269 30.4645 34.1726 30.354 33.7245 31.0415C33.2703 31.7228 31.9813 33.239 31.5761 33.6994C31.1833 34.1536 30.7843 34.2088 30.1152 33.8712C26.1376 31.8824 23.5288 30.3233 20.9077 25.8239C20.2141 24.6269 21.6014 24.7129 22.8965 22.1286C23.1175 21.6744 23.007 21.2877 22.8352 20.9439C22.6633 20.6002 21.3129 17.2732 20.7481 15.9167C20.2018 14.5969 19.6371 14.7811 19.2258 14.7565C18.833 14.732 18.3849 14.732 17.9306 14.732C17.4764 14.732 16.746 14.9038 16.126 15.5729C15.506 16.2543 13.7566 17.8932 13.7566 21.2202C13.7566 24.5471 16.1812 27.7698 16.5127 28.224C16.8564 28.6782 21.2822 35.504 28.0773 38.4443C32.3741 40.2981 34.056 40.4577 36.2044 40.1385C37.5119 39.942 40.2066 38.5057 40.7652 36.9158C41.3238 35.3322 41.3238 33.9756 41.158 33.6932C40.9923 33.3925 40.5381 33.2206 39.869 32.8952Z" fill="#F5F5F5"/>
<path d="M52.8635 16.8435C51.4763 13.5473 49.4875 10.5886 46.9523 8.04733C44.4349 5.52078 41.4465 3.51248 38.1561 2.13613C34.78 0.718183 31.1953 0 27.5 0H27.3772C23.6574 0.0184149 20.0542 0.755013 16.6659 2.20366C13.4037 3.59411 10.4432 5.60598 7.94947 8.12713C5.4389 10.6623 3.4685 13.6086 2.10579 16.8926C0.693978 20.2933 -0.0180667 23.9087 0.000348243 27.6286C0.0211771 31.8914 1.02969 36.0915 2.94674 39.8991V49.2293C2.94674 49.9782 3.24423 50.6964 3.77376 51.2259C4.30329 51.7554 5.02149 52.0529 5.77037 52.0529H15.1067C18.9143 53.97 23.1144 54.9785 27.3772 54.9993H27.5061C31.183 54.9993 34.7494 54.2873 38.107 52.8939C41.3807 51.5339 44.3581 49.549 46.8725 47.0502C49.4076 44.5396 51.4026 41.6055 52.796 38.3338C54.2446 34.9454 54.9812 31.3422 54.9997 27.6224C55.0181 23.8842 54.2938 20.2564 52.8635 16.8435ZM43.5885 43.7294C39.2856 47.9894 33.5769 50.3342 27.5 50.3342H27.3957C23.6942 50.3158 20.0174 49.395 16.7702 47.664L16.2546 47.3878H7.61186V38.745L7.33564 38.2294C5.60463 34.9823 4.68388 31.3054 4.66547 27.604C4.64092 21.4841 6.97961 15.7386 11.2703 11.4111C15.5548 7.08362 21.2819 4.68967 27.4018 4.66512H27.5061C30.5753 4.66512 33.5524 5.26054 36.3576 6.43909C39.0953 7.58696 41.5506 9.23816 43.6622 11.3497C45.7676 13.4552 47.425 15.9167 48.5728 18.6543C49.7637 21.4902 50.3591 24.498 50.3468 27.604C50.31 33.7178 47.9099 39.4448 43.5885 43.7294Z" fill="#F5F5F5"/>
</svg>
