<svg width="26" height="26" viewBox="0 0 26 26" fill="none" xmlns="http://www.w3.org/2000/svg">
<path d="M18.8471 15.5507C18.5308 15.3882 16.9552 14.6163 16.6621 14.5118C16.369 14.4016 16.1543 14.3493 15.9424 14.6743C15.7277 14.9964 15.1183 15.7132 14.9268 15.9308C14.7411 16.1455 14.5525 16.1717 14.2362 16.0121C12.3558 15.0719 11.1226 14.3348 9.88351 12.2078C9.55561 11.642 10.2114 11.6826 10.8237 10.4609C10.9282 10.2462 10.8759 10.0634 10.7947 9.9009C10.7134 9.7384 10.075 8.16563 9.80806 7.52434C9.5498 6.90045 9.28284 6.98751 9.08842 6.9759C8.90271 6.96429 8.69088 6.96429 8.47614 6.96429C8.26141 6.96429 7.9161 7.04554 7.62302 7.36184C7.32994 7.68394 6.50293 8.45871 6.50293 10.0315C6.50293 11.6043 7.64913 13.1277 7.80583 13.3424C7.96833 13.5572 10.0605 16.7839 13.2728 18.1739C15.304 19.0502 16.0991 19.1257 17.1148 18.9748C17.7328 18.8819 19.0067 18.2029 19.2708 17.4513C19.5348 16.7027 19.5348 16.0614 19.4565 15.9279C19.3782 15.7857 19.1634 15.7045 18.8471 15.5507Z" fill="#1F3056"/>
<path d="M24.9901 7.9625C24.3343 6.40424 23.3941 5.00558 22.1957 3.80424C21.0056 2.60986 19.5929 1.66046 18.0374 1.00982C16.4414 0.339509 14.7468 0 12.9999 0H12.9419C11.1834 0.00870536 9.48006 0.35692 7.87827 1.04174C6.33614 1.69906 4.93662 2.65013 3.75773 3.84196C2.5709 5.0404 1.63943 6.43326 0.995233 7.98571C0.327822 9.5933 -0.00878487 11.3025 -7.95145e-05 13.0609C0.00976697 15.0761 0.486526 17.0616 1.39278 18.8616V23.2723C1.39278 23.6263 1.53341 23.9659 1.78374 24.2162C2.03407 24.4665 2.37358 24.6071 2.7276 24.6071H7.14122C8.94118 25.5134 10.9267 25.9902 12.9419 26H13.0028C14.741 26 16.4269 25.6634 18.0142 25.0047C19.5618 24.3618 20.9693 23.4235 22.158 22.2422C23.3564 21.0554 24.2995 19.6683 24.9582 18.1217C25.643 16.5199 25.9912 14.8165 25.9999 13.058C26.0086 11.2908 25.6662 9.57589 24.9901 7.9625ZM20.6055 20.6723C18.5714 22.6862 15.8727 23.7946 12.9999 23.7946H12.9506C11.2008 23.7859 9.46265 23.3507 7.9276 22.5324L7.68385 22.4018H3.59814V18.3161L3.46755 18.0723C2.64925 16.5373 2.21398 14.7991 2.20528 13.0493C2.19367 10.1562 3.29925 7.44018 5.3276 5.39442C7.35305 3.34866 10.0604 2.21696 12.9535 2.20536H13.0028C14.4537 2.20536 15.8611 2.48683 17.1872 3.04397C18.4814 3.58661 19.6421 4.36719 20.6403 5.3654C21.6356 6.36071 22.4191 7.52433 22.9618 8.81853C23.5247 10.1592 23.8062 11.581 23.8004 13.0493C23.783 15.9395 22.6484 18.6469 20.6055 20.6723Z" fill="#1F3056"/>
</svg>
